PathFileType	4	(X/Y/Z)	/Users/visionmauri/1_7_1_f_Sports2D/1_7_1_f_Sports2D_m_person00.trc
DataRate	CameraRate	NumFrames	NumMarkers	Units	OrigDataRate	OrigDataStartFrame	OrigNumFrames
30.0	30.0	7	22	m	30.0	145	389
Frame#	Time	Hip			RHip			RKnee			RAnkle			RBigToe			RSmallToe			RHeel			LHip			LKnee			LAnkle			LBigToe			LSmallToe			LHeel			Neck			Head			Nose			RShoulder			RElbow			RWrist			LShoulder			LElbow			LWrist			
		X1	Y1	Z1	X2	Y2	Z2	X3	Y3	Z3	X4	Y4	Z4	X5	Y5	Z5	X6	Y6	Z6	X7	Y7	Z7	X8	Y8	Z8	X9	Y9	Z9	X10	Y10	Z10	X11	Y11	Z11	X12	Y12	Z12	X13	Y13	Z13	X14	Y14	Z14	X15	Y15	Z15	X16	Y16	Z16	X17	Y17	Z17	X18	Y18	Z18	X19	Y19	Z19	X20	Y20	Z20	X21	Y21	Z21	X22	Y22	Z22
145	4.845790378006873	2.1494473146891115	0.5711413965074584	0.0301	2.208432190761723	0.5096393710749826	0.0301	1.9580283411711208	0.2690210641075997	0.129	1.7460154986902494	0.055516387190523646	0.023	1.6724632953055845	0.028798875850996553	0.2179	1.710575937556783	-0.017543607652022893	0.1804	1.6989223371517437	0.017843099559343316	-0.0119	2.0879209574838686	0.6233258151737056	0.0301	1.8647399738329142	0.4191668762963264	0.129	1.6411175277845564	0.17786780614536238	0.023	1.5965841183048466	0.11874227850973496	0.2179	1.5579389292622243	0.15772452711782775	0.1804	1.59775809893678	0.13140242005633268	-0.0119	2.4175924825698094	0.8843358383380053	0.0008	2.475343828993004	1.0333440496629502	0.0655	2.4132242927247103	0.9649986129302233	0.1076	2.5205596073285035	0.7630314302459494	-0.01275	2.467226481738103	0.5407408746960622	0.0702	2.3447561243149653	0.41400767108179376	0.1076	2.2869131761521757	0.9543887106773954	-0.01275	2.0871323845002223	0.8323184663133057	0.0702	2.06651274834762	0.8114882384134162	0.1076
146	4.879209621993127	2.150682280706036	0.5685749726789316	0.0301	2.210211461134723	0.5075859615777951	0.0301	1.9579936284388966	0.26899688263956056	0.129	1.750357114148048	0.04589642837644554	0.023	1.689556927250688	0.033501342063126584	0.2179	1.7263210088278647	-0.01946255117225387	0.1804	1.706397050144479	0.005985266142124711	-0.0119	2.091310271624859	0.6215581087537698	0.0301	1.866265742222669	0.41560299692628094	0.129	1.6438993644342432	0.17711855453888195	0.023	1.5978778764278738	0.11738913088025875	0.2179	1.5625017617761596	0.1569625745388315	0.1804	1.5984558288257948	0.1294645366474111	-0.0119	2.420028007533364	0.882916572745063	0.0008	2.4716498845668537	1.0353965865983612	0.0655	2.4064174542032526	0.961783574243854	0.1076	2.521735768299507	0.7630448529622638	-0.01275	2.472895595987909	0.5373934953657524	0.0702	2.350889649555969	0.4195688576751036	0.1076	2.2904747762109876	0.9511094167967288	-0.01275	2.0923860447816858	0.8282062965205181	0.0702	2.070251552393591	0.810337863974777	0.1076
147	4.912628865979381	2.1527024095830942	0.566636912666193	0.0301	2.211075183359454	0.504803220703504	0.0301	1.957996536323313	0.2685712503084068	0.129	1.7554273312575601	0.03968859375244106	0.023	1.6988412119235836	0.04182483581096743	0.2179	1.7363079986053525	-0.019324589334874274	0.1804	1.7139687060884532	-0.0003407787075081372	-0.0119	2.094852978846912	0.6197496681976459	0.0301	1.8700960843465058	0.41465330019374885	0.129	1.6448725011092185	0.1737190671747191	0.023	1.5994973604487277	0.12414417356207896	0.2179	1.5648123614941032	0.15816522969459362	0.1804	1.6010623098017867	0.1265242003690953	-0.0119	2.4226926575181955	0.8810796097925926	0.0008	2.464746772501355	1.03876440577505	0.0655	2.3941611751903613	0.957696119614081	0.1076	2.523684108870082	0.762308927072378	-0.01275	2.476724431036259	0.5350613232860094	0.0702	2.3551656658530624	0.4257445016109053	0.1076	2.296630496605869	0.947942398690248	-0.01275	2.097106119997642	0.8239423076929193	0.0702	2.0774480934381407	0.8089724302418422	0.1076
148	4.946048109965636	2.1559765505109323	0.5645857052801662	0.0301	2.212686377814872	0.5016137106989204	0.0301	1.9585268583924507	0.2679862892368512	0.129	1.7585435367172184	0.036690139466245615	0.023	1.6993624725917489	0.05424453857400036	0.2179	1.739687524516103	-0.012133015443391959	0.1804	1.719631885252227	-0.0025751753462113143	-0.0119	2.0989137717880686	0.6171997218627379	0.0301	1.8726447217831643	0.4139625243759363	0.129	1.6467039861381332	0.17103941986846377	0.023	1.5996509541252568	0.12942959092756015	0.2179	1.566387903262675	0.15861175701812713	0.1804	1.6054229927571597	0.12500931242409732	-0.0119	2.425553190818224	0.878184435726292	0.0008	2.458291009425322	1.040441521551439	0.0655	2.3828443679813516	0.9543163094482118	0.1076	2.525603392176565	0.760167042396188	-0.01275	2.4797975410802717	0.5342302593155804	0.0702	2.356485016116219	0.4332283470841585	0.1076	2.304353944891841	0.9443543649606999	-0.01275	2.1012637381821255	0.8193608073114241	0.0702	2.086972323248774	0.8071382025152842	0.1076
149	4.97946735395189	2.160161359062349	0.5616882195664796	0.0301	2.2159731882910303	0.4979307626788854	0.0301	1.9594006120178802	0.2675231738872756	0.129	1.7593662572792779	0.036165960884440386	0.023	1.696882271122575	0.06407940612581926	0.2179	1.740640978633327	-0.0008998548763508164	0.1804	1.7233405886694715	-0.0022295497427556473	-0.0119	2.1036723535847757	0.6133143096211767	0.0301	1.8738690604908828	0.4123459235394406	0.129	1.649015000442713	0.17016080997680352	0.023	1.60166899432794	0.13174919500899046	0.2179	1.5686059095748954	0.15699856241361446	0.1804	1.608761046656748	0.12441478503429251	-0.0119	2.428768608879212	0.8740410406870798	0.0008	2.455140870940577	1.0386552893515324	0.0655	2.377960736823377	0.9513027971612775	0.1076	2.527485191337544	0.7554443485302523	-0.01275	2.481301182902322	0.5325739119603304	0.0702	2.3538652925984187	0.44029902479150324	0.1076	2.311793211722142	0.9387384811830092	-0.01275	2.106184339015117	0.813076176180113	0.0702	2.0967214461966375	0.8043008409956154	0.1076
150	5.012886597938144	2.165197742829763	0.5585998021727817	0.0301	2.2203815159938594	0.4941712295936105	0.0301	1.9602320528508579	0.26723293000071996	0.129	1.7594566450706133	0.03679819341602771	0.023	1.698073037675759	0.0669691634782546	0.2179	1.7424534613366298	0.006317559655696777	0.1804	1.7244298836842877	-0.0014684077545199794	-0.0119	2.10963826207101	0.6092517999243411	0.0301	1.8754361206007406	0.4090944935687229	0.129	1.6506498213401608	0.17011302633407496	0.023	1.6046158693638115	0.13347260472937292	0.2179	1.5697566677027361	0.15470543442186518	0.1804	1.6108204301085158	0.12338916428277155	-0.0119	2.431871887493432	0.8687349657008344	0.0008	2.453588212849637	1.0367149245715357	0.0655	2.377524862316086	0.9487193185354822	0.1076	2.5308026648104733	0.7480724381806819	-0.01275	2.4797763520078755	0.5287415882810099	0.0702	2.348057171847376	0.44575337767005185	0.1076	2.3178018903350828	0.931931764417215	-0.01275	2.1135697744723747	0.805182784612394	0.0702	2.102890486535281	0.7974469233724935	0.1076
151	5.046305841924399	2.1711646483256954	0.5562284298151814	0.0301	2.225490688848519	0.4910285550965154	0.0301	1.9613037358365024	0.2664843149392308	0.129	1.7603173260273732	0.0373577635094695	0.023	1.701865701957194	0.06782835440990162	0.2179	1.7446738338544296	0.007985481484202979	0.1804	1.723550020405863	-0.001655976674112255	-0.0119	2.1168378099781595	0.6062060659734618	0.0301	1.8790604486184612	0.405718116718163	0.129	1.6519228088427171	0.1700475345776404	0.023	1.6056688017312524	0.13699283598713102	0.2179	1.5687556223127757	0.15321069772319515	0.1804	1.614287185764641	0.12271758727857325	-0.0119	2.434997817997982	0.8627815919725293	0.0008	2.4515278013340542	1.0374411344272634	0.0655	2.3772630150411778	0.9469844156657482	0.1076	2.535148941342921	0.7409921554965245	-0.01275	2.4749111537611075	0.5239856072862533	0.0702	2.340723148417122	0.4518239675068651	0.1076	2.3239467831116727	0.9258405438844929	-0.01275	2.124712713012221	0.797146733809423	0.0702	2.106091296986364	0.7864989305643588	0.1076
